<mxfile host="app.diagrams.net" agent="Mozilla/5.0 (Macintosh; Intel Mac OS X 10_15_7) AppleWebKit/537.36 (KHTML, like Gecko) Chrome/139.0.0.0 Safari/537.36 Edg/139.0.0.0" version="26.0.14">
  <diagram name="Page-1" id="MBKZj-NG1l4omINmZsRP">
    <mxGraphModel dx="1426" dy="826" grid="1" gridSize="10" guides="1" tooltips="1" connect="1" arrows="1" fold="1" page="1" pageScale="1" pageWidth="850" pageHeight="1100" math="0" shadow="0">
      <root>
        <mxCell id="0" />
        <mxCell id="1" parent="0" />
        <mxCell id="GJuFcwSNdyRPKJeJElIo-7" style="edgeStyle=orthogonalEdgeStyle;rounded=0;orthogonalLoop=1;jettySize=auto;html=1;exitX=1;exitY=0.5;exitDx=0;exitDy=0;entryX=0;entryY=0.25;entryDx=0;entryDy=0;flowAnimation=1;fillColor=#ffcd28;gradientColor=#ffa500;strokeColor=#d79b00;" edge="1" parent="1" source="GJuFcwSNdyRPKJeJElIo-2" target="GJuFcwSNdyRPKJeJElIo-5">
          <mxGeometry relative="1" as="geometry" />
        </mxCell>
        <mxCell id="GJuFcwSNdyRPKJeJElIo-2" value="Application instrumentation Library" style="rounded=1;whiteSpace=wrap;html=1;fillColor=#ffcd28;gradientColor=#ffa500;strokeColor=#d79b00;" vertex="1" parent="1">
          <mxGeometry x="60" y="190" width="230" height="80" as="geometry" />
        </mxCell>
        <mxCell id="GJuFcwSNdyRPKJeJElIo-8" style="edgeStyle=orthogonalEdgeStyle;rounded=0;orthogonalLoop=1;jettySize=auto;html=1;entryX=0;entryY=0.5;entryDx=0;entryDy=0;flowAnimation=1;fillColor=#dae8fc;gradientColor=#7ea6e0;strokeColor=#6c8ebf;" edge="1" parent="1" source="GJuFcwSNdyRPKJeJElIo-3" target="GJuFcwSNdyRPKJeJElIo-5">
          <mxGeometry relative="1" as="geometry" />
        </mxCell>
        <mxCell id="GJuFcwSNdyRPKJeJElIo-3" value="Cloud Integration" style="rounded=1;whiteSpace=wrap;html=1;fillColor=#dae8fc;gradientColor=#7ea6e0;strokeColor=#6c8ebf;" vertex="1" parent="1">
          <mxGeometry x="60" y="300" width="230" height="80" as="geometry" />
        </mxCell>
        <mxCell id="GJuFcwSNdyRPKJeJElIo-9" style="edgeStyle=orthogonalEdgeStyle;rounded=0;orthogonalLoop=1;jettySize=auto;html=1;entryX=0;entryY=0.75;entryDx=0;entryDy=0;flowAnimation=1;fillColor=#d5e8d4;gradientColor=#97d077;strokeColor=#82b366;" edge="1" parent="1" source="GJuFcwSNdyRPKJeJElIo-4" target="GJuFcwSNdyRPKJeJElIo-5">
          <mxGeometry relative="1" as="geometry">
            <Array as="points">
              <mxPoint x="320" y="460" />
              <mxPoint x="320" y="360" />
            </Array>
          </mxGeometry>
        </mxCell>
        <mxCell id="GJuFcwSNdyRPKJeJElIo-4" value="Monitoring Solution&lt;div&gt;Prometheus&lt;/div&gt;" style="rounded=1;whiteSpace=wrap;html=1;fillColor=#d5e8d4;gradientColor=#97d077;strokeColor=#82b366;" vertex="1" parent="1">
          <mxGeometry x="60" y="420" width="230" height="80" as="geometry" />
        </mxCell>
        <mxCell id="GJuFcwSNdyRPKJeJElIo-10" style="edgeStyle=orthogonalEdgeStyle;rounded=0;orthogonalLoop=1;jettySize=auto;html=1;exitX=1;exitY=0.5;exitDx=0;exitDy=0;entryX=0;entryY=0.5;entryDx=0;entryDy=0;flowAnimation=1;strokeColor=#FF3333;" edge="1" parent="1" source="GJuFcwSNdyRPKJeJElIo-5" target="GJuFcwSNdyRPKJeJElIo-6">
          <mxGeometry relative="1" as="geometry" />
        </mxCell>
        <mxCell id="GJuFcwSNdyRPKJeJElIo-5" value="OTEL Collector&lt;div&gt;Receivers, Processors, Connector, Exporters&lt;/div&gt;" style="rounded=1;whiteSpace=wrap;html=1;fillColor=#f5f5f5;gradientColor=#b3b3b3;strokeColor=#666666;" vertex="1" parent="1">
          <mxGeometry x="350" y="300" width="230" height="80" as="geometry" />
        </mxCell>
        <mxCell id="GJuFcwSNdyRPKJeJElIo-6" value="APM tools&amp;nbsp;&lt;div&gt;(Datadog, Zipkin, etc)&lt;/div&gt;" style="rounded=1;whiteSpace=wrap;html=1;fillColor=#e6d0de;gradientColor=#d5739d;strokeColor=#996185;" vertex="1" parent="1">
          <mxGeometry x="640" y="300" width="230" height="80" as="geometry" />
        </mxCell>
      </root>
    </mxGraphModel>
  </diagram>
</mxfile>
